<?xml version="1.0" standalone="no"?>
<!DOCTYPE svg PUBLIC "-//W3C//DTD SVG 20010904//EN"
 "http://www.w3.org/TR/2001/REC-SVG-20010904/DTD/svg10.dtd">
<svg version="1.0" xmlns="http://www.w3.org/2000/svg"
 width="512.000000pt" height="512.000000pt" viewBox="0 0 512.000000 512.000000"
 preserveAspectRatio="xMidYMid meet">
<metadata>
Created by potrace 1.16, written by Peter Selinger 2001-2019
</metadata>
<g transform="translate(0.000000,512.000000) scale(0.100000,-0.100000)"
fill="#000000" stroke="none">
<path d="M2439 4809 c-63 -10 -102 -32 -156 -87 -51 -53 -68 -86 -78 -152 -9
-66 20 -252 50 -318 14 -30 25 -56 25 -58 0 -2 -31 -19 -68 -38 -77 -39 -123
-85 -154 -155 -99 -220 -142 -284 -238 -350 -36 -25 -87 -70 -115 -100 -158
-173 -289 -291 -323 -291 -25 0 -52 -31 -52 -58 0 -17 -6 -22 -25 -22 -14 0
-28 -7 -32 -16 -3 -8 -37 -31 -75 -50 -38 -19 -156 -85 -261 -146 -106 -61
-239 -138 -297 -171 -58 -33 -109 -64 -115 -69 -28 -25 316 151 611 313 l149
82 69 -2 c58 -2 75 -7 99 -27 19 -16 36 -22 49 -18 11 3 26 -1 36 -9 9 -9 30
-21 46 -27 l28 -10 -48 -53 c-26 -28 -56 -60 -66 -70 -10 -10 -27 -36 -38 -57
-19 -38 -23 -40 -66 -40 -57 0 -51 11 28 51 33 17 57 33 54 36 -9 9 -176 -76
-176 -90 0 -13 59 -104 97 -150 38 -46 31 -71 -29 -105 -112 -63 -300 -221
-313 -263 -20 -63 101 -66 249 -5 50 20 91 36 92 36 2 0 8 -26 14 -57 7 -31
19 -75 26 -97 11 -30 12 -47 4 -71 -10 -30 -15 -33 -91 -48 -44 -8 -109 -29
-144 -46 -75 -34 -83 -57 -35 -92 l29 -22 -93 -88 c-214 -203 -332 -476 -343
-799 -8 -224 28 -376 124 -522 49 -74 102 -125 178 -168 31 -19 44 -31 35 -34
-8 -3 -61 -17 -118 -32 -56 -15 -101 -29 -99 -31 2 -2 69 4 148 12 268 28 591
78 709 111 66 18 372 126 368 130 -5 4 -578 -113 -633 -130 -47 -14 -49 -14
-25 2 244 166 424 500 447 829 5 78 9 92 24 96 15 4 19 15 19 56 0 45 -20 169
-36 224 -3 9 -1 17 4 17 5 0 15 -26 22 -57 39 -176 86 -233 235 -282 74 -24
109 -31 139 -27 23 3 67 6 98 7 31 2 55 6 52 11 -8 13 12 9 45 -9 30 -18 31
-17 191 37 125 42 167 61 185 82 13 15 25 31 27 36 1 5 15 12 30 15 24 6 29 3
50 -40 30 -61 121 -154 175 -179 23 -10 42 -21 42 -24 0 -3 -61 -29 -137 -59
-187 -73 -556 -236 -540 -238 7 -1 90 -9 183 -18 l170 -17 100 47 c230 108
462 208 549 236 84 27 123 49 371 214 289 193 558 389 710 520 128 110 370
333 435 401 51 54 50 53 -20 -11 -362 -334 -791 -669 -1150 -897 -74 -47 -144
-88 -155 -91 -11 -4 -69 -13 -128 -22 -59 -9 -138 -25 -174 -36 -36 -11 -73
-23 -82 -25 -9 -3 7 6 35 21 106 53 207 169 268 308 18 40 36 73 42 74 5 1 43
24 84 51 83 54 194 113 253 131 33 11 42 22 74 84 19 40 45 85 56 101 38 54
-291 -176 -405 -283 l-65 -61 16 66 c14 61 21 72 83 132 100 96 150 131 336
233 195 107 302 169 302 176 0 5 27 20 -269 -143 -247 -134 -258 -142 -344
-229 l-90 -90 7 60 c6 53 12 64 44 93 20 18 60 46 87 62 28 17 46 30 42 30
-15 0 -92 -43 -129 -72 l-38 -30 0 56 c0 76 -25 187 -56 248 -21 41 -23 49 -9
38 17 -14 18 -13 12 11 -9 37 45 122 111 176 29 24 51 43 49 43 -3 0 -26 -12
-53 -27 l-48 -27 22 31 c24 34 78 83 92 83 12 0 230 -275 230 -291 0 -7 -17
-31 -37 -53 -44 -45 -39 -43 82 37 93 62 143 102 280 222 44 39 137 117 207
173 145 116 161 135 225 252 53 97 59 100 -128 -56 -258 -214 -428 -334 -474
-334 -15 0 -26 14 -43 58 -55 143 -192 320 -305 393 -56 36 -99 49 -210 64
l-47 6 29 42 c62 91 97 186 81 217 -21 39 -138 50 -267 25 -43 -8 -80 -15 -83
-15 -3 0 8 9 24 19 15 10 36 31 46 46 18 28 18 28 -16 62 -19 18 -34 38 -34
43 0 5 33 28 73 51 127 72 301 178 322 194 42 33 -204 -97 -300 -159 l-100
-65 -18 42 c-12 27 -16 53 -12 72 21 102 18 113 -35 140 l-27 14 13 -37 c22
-60 17 -95 -18 -145 -36 -50 -163 -199 -243 -285 -47 -51 -69 -57 -45 -12 10
19 8 26 -16 51 -16 16 -48 36 -73 43 -34 10 -40 14 -24 18 29 8 95 -17 120
-46 l21 -25 42 82 c58 112 85 146 134 166 60 26 69 41 64 108 -3 43 -17 85
-52 158 -26 55 -57 131 -67 168 -19 67 -55 146 -81 178 -53 64 -209 152 -301
170 -64 12 -71 18 -57 54 6 16 15 60 20 98 30 239 -109 417 -301 386z m90 -18
c23 -6 23 -7 -17 -34 -47 -31 -102 -117 -102 -161 0 -40 23 -19 40 36 7 24 21
55 32 71 34 48 101 71 138 47 12 -7 8 -11 -17 -16 -42 -8 -75 -45 -71 -78 3
-24 5 -25 28 -13 13 7 35 28 48 47 30 46 36 47 61 12 20 -28 20 -32 6 -72 -26
-75 -51 -100 -98 -101 -23 0 -76 -6 -117 -14 -41 -7 -77 -11 -79 -9 -3 3 0 36
7 75 13 74 40 139 75 177 20 21 20 22 1 22 -86 0 -161 -60 -189 -149 -7 -24
-6 -24 41 -18 32 4 42 3 29 -3 -26 -11 -85 -12 -85 -1 0 21 25 79 47 109 44
59 149 94 222 73z m71 -96 c-7 -8 -19 -15 -26 -15 -8 0 -11 6 -8 15 4 8 15 15
26 15 17 0 18 -3 8 -15z m-354 -70 c-3 -13 -2 -44 3 -67 11 -48 10 -51 -13
-42 -15 6 -17 15 -11 53 3 25 8 54 11 64 8 27 17 20 10 -8z m474 -60 c21 -114
-6 -234 -67 -291 -15 -15 -75 -58 -132 -96 -111 -73 -132 -78 -175 -40 -24 21
-60 79 -80 126 l-15 35 52 -35 c45 -31 57 -35 91 -29 49 7 153 61 225 116 l55
41 -31 -38 c-17 -22 -50 -57 -73 -79 -36 -34 -121 -136 -94 -112 126 113 176
166 203 217 17 32 31 65 31 73 0 8 -15 28 -34 44 -33 30 -33 30 -15 54 10 13
21 36 24 52 10 44 22 31 35 -38z m-96 -84 c4 -5 7 -28 8 -51 1 -34 -3 -46 -23
-61 -24 -18 -24 -18 -31 4 -3 12 -6 43 -7 70 -1 43 1 47 23 47 14 0 27 -4 30
-9z m-376 -111 c0 -23 -1 -22 -8 5 -4 17 -8 46 -8 65 l0 35 9 -40 c4 -22 8
-51 7 -65z m672 -173 c30 -14 64 -32 75 -41 19 -16 19 -16 -7 -10 -16 3 -44
-2 -73 -15 l-47 -21 17 27 c13 19 15 28 6 31 -18 6 -71 53 -71 63 0 9 18 4
100 -34z m-160 -14 c0 -57 -92 -170 -170 -208 -59 -29 -70 -44 -70 -95 0 -40
22 -144 45 -215 3 -11 -1 -8 -9 7 -36 62 -58 226 -36 268 6 11 27 27 48 37 80
38 161 149 162 222 0 29 2 32 15 21 8 -7 15 -23 15 -37z m-105 -38 c-18 -63
-63 -119 -122 -152 l-39 -22 -39 22 c-28 16 -41 30 -42 47 -1 15 0 18 3 7 7
-21 84 -63 93 -49 3 5 20 16 38 25 42 22 68 58 88 120 26 81 27 83 32 70 2 -7
-3 -38 -12 -68z m-51 33 c-25 -30 -42 -44 -87 -74 -65 -42 -50 -22 26 38 81
63 88 67 61 36z m-359 -40 c-67 -34 -75 -42 -75 -77 0 -18 -3 -22 -11 -14 -25
25 -5 58 56 90 33 18 67 32 75 32 8 0 -12 -14 -45 -31z m818 -55 c14 -16 38
-55 53 -87 32 -70 27 -85 -36 -105 -38 -12 -50 -12 -109 5 l-66 19 -3 40 c-3
48 25 97 77 132 43 29 52 29 84 -4z m-954 -123 c1 -18 -7 -31 -28 -43 -32 -19
-51 -22 -51 -8 0 5 13 11 30 14 33 7 52 49 31 70 -8 8 -11 6 -11 -10 0 -11 -7
-26 -15 -33 -22 -18 -19 3 7 53 l22 42 7 -30 c4 -16 7 -41 8 -55z m-54 -141
c-49 -71 -90 -112 -143 -141 -22 -11 -30 -22 -26 -32 4 -11 0 -16 -14 -16 -45
0 -158 -97 -203 -175 -32 -56 -40 -45 -10 13 24 45 111 135 166 171 70 45 144
112 182 165 88 123 131 137 48 15z m1095 68 c0 -7 23 -59 50 -117 42 -88 60
-140 48 -140 -2 0 -25 7 -53 15 l-50 16 -68 -73 c-39 -42 -80 -99 -97 -133
-15 -33 -44 -76 -64 -95 l-36 -34 -123 -4 c-114 -4 -123 -3 -141 17 -26 29
-16 34 30 15 47 -20 119 -14 195 17 77 30 106 54 134 112 31 66 135 182 186
208 22 10 39 21 39 23 0 2 -18 42 -40 90 -22 48 -38 92 -35 97 8 12 25 2 25
-14z m-383 -9 c-3 -8 -6 -5 -6 6 -1 11 2 17 5 13 3 -3 4 -12 1 -19z m211 -65
c32 -72 46 -116 56 -172 10 -56 -5 -28 -49 92 -23 61 -45 120 -50 130 -4 9 -3
17 2 17 6 0 24 -30 41 -67z m-155 -43 l22 -25 -24 20 c-25 22 -51 66 -51 87 1
7 8 -3 16 -22 8 -19 25 -46 37 -60z m-533 -29 c5 -11 51 -63 100 -117 110
-118 190 -234 190 -275 0 -16 -5 -29 -11 -29 -6 0 -9 -7 -5 -15 3 -8 -2 -21
-10 -27 -9 -7 -34 -32 -57 -55 -39 -38 -226 -143 -257 -143 -8 0 -9 10 -5 29
8 39 -8 47 -124 62 -74 9 -99 17 -131 40 -26 19 -52 29 -74 29 -29 0 -41 -8
-76 -49 -42 -49 -55 -53 -87 -29 -9 8 -7 16 8 37 23 32 17 59 -17 67 -31 8
-40 0 -48 -38 l-7 -33 -30 35 -31 35 29 6 c50 11 259 117 312 159 28 22 107
105 177 185 69 80 130 145 135 145 4 0 13 -9 19 -19z m550 -51 c-40 -31 -112
-62 -155 -67 l-40 -4 55 24 c30 13 78 35 105 49 55 29 74 27 35 -2z m-256 -66
c3 -8 2 -12 -4 -9 -6 3 -10 10 -10 16 0 14 7 11 14 -7z m-811 -171 c-32 -37
-74 -89 -92 -115 -31 -43 -51 -59 -51 -41 0 21 188 239 198 229 2 -3 -22 -35
-55 -73z m246 51 c-28 -29 -140 -107 -146 -100 -2 2 8 26 23 53 29 51 34 54
138 71 5 1 -1 -10 -15 -24z m1311 -190 c0 -50 -15 -80 -49 -94 -30 -12 -42
-30 -21 -30 13 0 13 -140 0 -160 -8 -12 -10 -9 -10 11 0 14 -7 48 -15 74 -10
36 -11 52 -3 62 9 11 0 13 -48 8 -53 -4 -55 -4 -24 6 100 30 125 44 128 72 2
15 -8 51 -21 80 l-24 54 20 28 21 28 23 -53 c13 -29 23 -67 23 -86z m-1725 76
c3 -5 2 -10 -4 -10 -5 0 -13 5 -16 10 -3 6 -2 10 4 10 5 0 13 -4 16 -10z m-15
-75 c17 -9 30 -20 30 -26 0 -5 -13 -3 -30 6 -34 18 -67 19 -107 5 l-28 -10 25
20 c30 24 70 25 110 5z m1658 -17 c-2 -13 4 -28 12 -35 21 -16 13 -21 -50 -28
-50 -5 -53 -5 -32 8 13 7 32 28 42 45 23 38 33 41 28 10z m-412 -35 c-18 -46
-42 -93 -48 -93 -15 0 -8 39 13 74 22 37 46 50 35 19z m-108 -5 c10 -14 0 -52
-17 -62 -5 -4 -17 3 -25 16 l-15 21 -10 -25 c-5 -14 -17 -28 -26 -32 -26 -10
-75 -7 -75 4 0 6 16 10 35 10 30 0 37 5 46 28 11 31 35 52 60 52 9 0 21 -6 27
-12z m-1237 -39 l-9 -34 -1 31 c-1 17 2 34 6 37 12 13 14 -1 4 -34z m71 16
c-5 -28 -22 -44 -22 -21 0 21 11 46 20 46 4 0 5 -11 2 -25z m1317 -24 c-12
-41 -29 -55 -29 -26 0 20 30 79 36 72 3 -3 0 -23 -7 -46z m-1493 23 c-3 -9 -6
-18 -6 -20 0 -2 -7 -4 -15 -4 -18 0 -20 26 -2 33 23 10 29 7 23 -9z m72 -78
c15 -2 44 -7 65 -11 45 -7 48 -20 6 -29 -17 -3 -28 -10 -24 -16 3 -5 0 -10 -7
-10 -16 0 -47 19 -33 20 6 0 2 5 -8 11 -10 6 -52 13 -93 16 -92 7 -96 28 -6
28 l62 0 2 40 1 40 4 -42 c4 -36 8 -42 31 -47z m1508 68 c-3 -9 -6 -24 -6 -35
0 -10 -7 -19 -15 -19 -17 0 -20 23 -5 51 13 23 35 26 26 3z m722 -5 c35 -11
38 -23 20 -66 -6 -15 -11 -31 -10 -35 1 -5 -3 -8 -9 -8 -5 0 -7 -5 -3 -12 4
-6 3 -8 -4 -4 -5 3 -19 -9 -30 -26 -12 -18 -37 -49 -56 -67 -23 -23 -36 -44
-36 -61 0 -16 -33 -75 -87 -156 -47 -71 -86 -134 -86 -141 0 -7 -3 -11 -6 -10
-3 1 -38 -32 -78 -72 l-71 -74 -62 7 c-91 10 -93 12 -87 61 4 23 15 63 26 89
16 37 29 50 58 62 218 89 363 173 363 210 0 9 -13 2 -33 -19 -32 -31 -323
-175 -333 -164 -11 11 74 69 209 141 81 43 147 84 147 91 0 7 22 41 49 77 28
36 59 80 70 99 l20 33 -31 23 c-18 13 -38 23 -45 23 -7 0 -13 5 -13 11 0 12
60 5 118 -12z m-1768 7 c0 -3 -13 -24 -29 -48 -16 -24 -59 -98 -95 -165 -67
-121 -107 -176 -92 -123 4 14 39 81 78 149 38 67 67 125 65 128 -3 2 -17 -16
-32 -41 -15 -25 -29 -46 -31 -46 -6 0 42 91 58 111 22 26 78 51 78 35z m1668
-26 c23 -10 42 -24 42 -29 0 -10 -61 -31 -91 -31 -26 0 -29 -11 -12 -43 14
-29 14 -31 -3 -45 -35 -25 -128 -70 -183 -86 -66 -19 -61 -20 -61 2 0 12 9 17
35 19 38 2 155 54 175 78 30 37 -35 99 -117 111 -24 3 -43 9 -43 13 0 9 108
27 170 29 26 1 63 -7 88 -18z m-1045 -17 c-7 -2 -13 -13 -13 -23 0 -14 -10
-21 -35 -26 -19 -3 -73 -28 -120 -55 -78 -45 -135 -62 -135 -40 0 22 253 148
300 149 10 0 11 -1 3 -5z m-802 -41 c28 -25 30 -31 20 -51 -7 -12 -14 -21 -15
-19 -1 1 -22 24 -46 51 -42 46 -42 47 -16 47 14 0 40 -13 57 -28z m364 13 c60
-12 63 -14 21 -11 -58 5 -87 -11 -198 -106 l-72 -62 31 45 c63 91 114 149 131
148 9 0 49 -7 87 -14z m1124 -75 c27 -97 22 -123 -51 -260 -28 -52 -66 -124
-84 -160 l-33 -64 -3 62 -3 62 -44 -35 c-35 -28 -40 -36 -27 -41 24 -9 56 -78
63 -135 6 -47 5 -49 -19 -49 -13 0 -33 7 -44 15 -18 14 -17 14 12 9 41 -8 49
7 28 48 -39 78 -89 100 -119 54 -38 -58 35 -174 115 -185 43 -6 44 -7 57 -56
17 -62 12 -200 -8 -238 -14 -26 -15 -22 -11 65 5 127 -10 174 -66 208 -48 28
-93 87 -111 142 -18 54 5 94 84 152 76 56 103 86 151 172 37 66 98 214 91 221
-2 2 -12 -18 -22 -44 -48 -130 -160 -310 -180 -291 -4 4 4 21 19 38 67 80 129
223 142 327 6 54 19 78 35 67 4 -2 16 -40 28 -84z m-168 45 c-44 -50 -87 -140
-132 -275 -27 -79 -37 -101 -33 -70 8 63 59 213 91 267 27 46 85 113 98 113 4
0 -7 -16 -24 -35z m-1402 6 c13 -10 21 -23 17 -30 -9 -14 -65 -14 -86 -1 -13
9 -11 13 10 30 30 24 29 24 59 1z m961 4 c-7 -8 -19 -15 -26 -15 -8 0 -14 7
-14 15 0 10 10 15 26 15 22 0 25 -2 14 -15z m-421 -37 c-4 -24 -13 -56 -19
-73 -18 -47 -5 -72 62 -115 34 -22 67 -40 73 -40 46 0 32 -57 -112 -446 l-38
-101 -75 31 -75 31 -185 -2 c-107 0 -168 2 -145 6 52 10 85 24 154 64 31 19
62 32 69 29 7 -2 11 0 10 5 -2 6 11 22 29 37 17 15 58 61 89 104 32 42 90 110
128 151 l71 74 -61 -44 c-34 -24 -75 -51 -91 -60 -16 -9 -54 -52 -85 -95 -85
-122 -135 -159 -312 -228 -55 -22 -70 -25 -77 -14 -19 29 -3 67 89 221 36 62
67 115 68 120 1 4 2 11 3 15 2 15 72 92 94 103 12 7 1 -9 -25 -34 -25 -25 -52
-56 -58 -68 -7 -13 12 2 41 34 72 77 361 336 375 337 8 0 9 -13 3 -42z m771
19 c0 -11 -33 -14 -147 -17 -82 -1 -159 -3 -173 -4 -32 -1 -38 17 -8 26 13 3
92 6 176 7 120 1 152 -2 152 -12z m-393 -33 c24 -4 40 -10 37 -15 -7 -12 -70
-12 -111 0 -28 8 -44 4 -115 -31 -108 -52 -155 -72 -143 -59 6 6 31 21 55 34
25 13 72 38 105 56 48 26 67 31 95 26 19 -3 54 -8 77 -11z m-853 -27 c7 -20 2
-48 -24 -124 -18 -54 -44 -136 -56 -183 -12 -47 -23 -74 -23 -60 -1 14 8 58
19 98 20 71 28 202 11 172 -17 -30 -32 -128 -37 -239 -4 -102 -18 -222 -30
-260 -3 -10 -8 -10 -18 -2 -8 7 -15 44 -19 104 -4 71 -13 112 -36 173 -17 43
-31 85 -31 93 0 33 202 265 224 258 6 -2 15 -15 20 -30z m1935 -17 c-12 -22
-36 -52 -53 -67 l-30 -28 23 30 c12 17 33 47 48 68 34 49 40 47 12 -3z m-1126
-46 c46 -11 30 -21 -62 -38 -100 -18 -170 -21 -155 -7 15 15 157 61 174 56 8
-2 27 -7 43 -11z m-308 -34 c3 -5 1 -10 -4 -10 -6 0 -11 5 -11 10 0 6 2 10 4
10 3 0 8 -4 11 -10z m372 -16 c-3 -4 -28 -17 -54 -30 -26 -13 -41 -24 -32 -24
9 0 55 -18 102 -40 47 -22 112 -46 144 -52 l58 -12 -58 -8 c-57 -7 -62 -6
-165 44 -99 48 -113 52 -182 53 -57 1 -85 7 -118 24 -58 30 -48 37 13 10 59
-26 120 -22 216 15 65 25 87 31 76 20z m1156 -31 c5 -3 -8 -13 -30 -23 -89
-40 -228 -164 -238 -212 -4 -18 -18 -53 -30 -78 -29 -57 -172 -243 -263 -340
l-69 -75 -8 69 c-4 38 -13 89 -20 115 -7 25 -15 63 -18 83 -6 43 -1 42 72 -4
25 -15 50 -28 57 -28 18 0 165 161 157 173 -3 6 -1 7 5 3 6 -4 28 23 53 66 23
40 63 105 89 143 26 39 55 83 64 98 17 29 18 29 94 22 42 -4 81 -10 85 -12z
m-1071 -32 c139 -52 198 -100 91 -74 -72 18 -224 84 -217 95 9 15 48 8 126
-21z m-212 -112 c55 -28 110 -59 124 -70 23 -18 73 -139 57 -139 -4 0 -28 24
-54 54 -25 30 -89 82 -141 117 -53 35 -95 70 -96 77 0 18 2 17 110 -39z
m-1040 11 c0 -5 -10 -14 -21 -21 -18 -9 -25 -7 -42 10 l-21 21 42 0 c23 0 42
-4 42 -10z m69 -215 l13 -20 -7 20 c-13 39 -18 125 -7 125 15 0 22 -26 29 -99
4 -41 3 -62 -4 -58 -5 3 -9 -3 -9 -13 1 -30 -17 -28 -32 4 -19 38 -27 133 -16
192 8 48 8 47 14 -41 3 -49 11 -99 19 -110z m-25 -51 c14 -26 26 -51 26 -56 0
-16 -30 13 -46 44 -19 36 -37 184 -28 218 6 18 10 -2 15 -67 5 -72 13 -103 33
-139z m913 180 c18 -14 56 -53 84 -86 56 -68 57 -76 14 -161 -20 -39 -21 -46
-7 -38 9 5 26 19 37 32 32 36 136 109 155 109 10 0 20 -7 23 -15 4 -8 -34 -96
-83 -197 -49 -101 -111 -236 -138 -300 -47 -110 -100 -214 -107 -206 -1 2 2
26 8 53 14 71 2 135 -44 223 -21 42 -36 79 -32 83 5 3 58 45 118 92 61 48 135
109 165 138 l55 51 -55 -38 c-30 -22 -113 -83 -183 -137 -112 -85 -131 -96
-148 -86 -12 6 -33 8 -47 5 -21 -5 -8 11 58 72 46 42 113 104 148 137 l63 60
-16 46 c-9 25 -40 76 -70 112 -47 56 -56 77 -37 77 3 0 20 -12 39 -26z m1346
-76 c46 -57 87 -108 90 -114 10 -18 -107 -89 -200 -122 l-83 -29 -56 28 c-31
16 -72 29 -90 29 -19 0 -34 2 -34 5 0 3 21 33 46 67 50 67 94 152 94 181 0 22
22 22 68 -2 20 -10 48 -22 61 -26 23 -7 23 -6 17 39 -4 25 -5 46 -2 46 3 0 43
-46 89 -102z m-1376 -130 c-6 -4 -19 -8 -27 -8 -20 0 -61 65 -53 85 5 13 14 8
49 -26 31 -30 40 -45 31 -51z m-875 -48 c21 -16 74 -43 116 -61 42 -17 108
-47 147 -66 65 -33 74 -35 147 -31 43 3 78 2 78 -2 0 -4 -9 -15 -20 -25 -17
-16 -27 -16 -95 -6 -60 9 -107 26 -221 82 -80 39 -159 71 -174 71 -18 1 -64
-19 -117 -49 -48 -28 -107 -60 -130 -72 -45 -22 -127 -28 -139 -10 -10 16 80
96 218 192 l123 86 14 -40 c8 -27 27 -50 53 -69z m798 30 c12 -8 11 -10 -7
-10 -13 0 -23 5 -23 10 0 13 11 13 30 0z m483 -106 c16 -31 26 -59 23 -61 -7
-7 -66 87 -66 104 0 28 17 11 43 -43z m-523 36 c0 -5 -4 -10 -10 -10 -5 0 -10
5 -10 10 0 6 5 10 10 10 6 0 10 -4 10 -10z m1450 -16 c0 -3 -17 -30 -39 -59
l-38 -54 -31 38 -30 38 61 20 c70 24 77 25 77 17z m-671 -293 c39 -46 71 -89
71 -95 0 -23 -71 -76 -102 -76 -7 0 6 12 30 26 23 14 42 31 42 39 0 7 -22 40
-48 72 -58 70 -102 134 -129 188 -42 82 -33 87 15 10 28 -44 82 -118 121 -164z
m-904 208 c4 -5 4 -21 1 -35 -6 -24 -10 -25 -49 -19 -49 8 -74 25 -36 25 13 0
30 9 37 20 13 22 37 26 47 9z m1425 -4 c17 -9 30 -17 30 -18 0 -1 -21 -2 -48
-2 -46 0 -99 -27 -243 -122 -48 -32 -99 -46 -116 -32 -17 15 -16 49 2 73 14
18 15 17 15 -22 0 -38 2 -42 24 -42 14 0 60 26 108 62 45 34 98 70 116 81 37
22 37 35 0 17 -22 -11 -22 -10 -4 4 25 20 79 20 116 1z m-1964 -45 c-11 -57
-80 -200 -96 -200 -39 1 -38 15 6 109 49 105 60 121 81 121 12 0 14 -7 9 -30z
m1054 -4 c0 -3 -4 -8 -10 -11 -5 -3 -10 -1 -10 4 0 6 5 11 10 11 6 0 10 -2 10
-4z m-560 -35 c12 -8 8 -24 -22 -98 -51 -123 -102 -247 -104 -251 -1 -2 -14 2
-28 10 l-25 13 64 150 c36 82 63 156 60 163 -2 7 -1 10 4 7 5 -3 12 -1 16 5 8
12 16 12 35 1z m580 5 c0 -2 -7 -7 -16 -10 -8 -3 -12 -2 -9 4 6 10 25 14 25 6z
m910 -41 c29 -28 63 -97 75 -150 3 -16 -4 -5 -18 26 -47 111 -102 157 -175
145 l-37 -5 29 13 c38 17 90 6 126 -29z m-1961 8 c-26 -70 -63 -143 -71 -143
-5 0 -8 4 -6 8 30 75 73 162 80 162 4 0 3 -12 -3 -27z m392 -42 c-12 -22 -30
-62 -40 -88 -38 -94 -72 -165 -77 -160 -3 2 15 49 39 103 59 133 90 194 95
190 2 -2 -6 -22 -17 -45z m619 44 c0 -2 -15 -12 -32 -21 l-33 -17 19 22 c17
19 46 29 46 16z m879 -38 c27 -25 71 -113 70 -142 0 -14 -5 -10 -20 17 -10 21
-29 43 -42 49 -12 6 -30 21 -40 33 -12 14 -17 16 -14 5 4 -11 -5 -19 -30 -28
-22 -8 -47 -31 -70 -63 -25 -34 -39 -46 -46 -39 -14 14 36 119 80 167 28 31
37 35 60 29 16 -3 39 -16 52 -28z m-1792 17 c-3 -3 -12 -4 -19 -1 -8 3 -5 6 6
6 11 1 17 -2 13 -5z m1088 -24 c-5 -8 -11 -8 -17 -2 -6 6 -7 16 -3 22 5 8 11
8 17 2 6 -6 7 -16 3 -22z m-1095 -1 c-11 -8 -8 -9 15 -5 24 5 26 4 13 -4 -21
-13 -77 -2 -56 11 7 5 20 9 28 9 13 0 13 -1 0 -11z m1450 -39 c0 -37 28 -56
93 -65 40 -6 46 -10 36 -22 -9 -10 -31 -13 -83 -11 l-71 3 -3 54 c-2 29 -1 60
2 68 9 23 26 5 26 -27z m-1440 4 l35 -14 -35 6 c-19 3 -39 10 -44 15 -14 13 2
10 44 -7z m43 -41 c-7 -2 -19 -2 -25 0 -7 3 -2 5 12 5 14 0 19 -2 13 -5z m837
-2 c0 -13 -59 -61 -73 -61 -7 1 1 8 16 16 16 9 27 18 24 21 -3 2 -16 -1 -29
-8 -29 -15 -17 -2 19 22 32 20 43 23 43 10z m180 -48 c12 -20 16 -32 8 -26
-17 15 -54 78 -40 70 5 -4 20 -24 32 -44z m-1015 27 c13 -5 14 -9 5 -9 -8 0
-24 4 -35 9 -13 5 -14 9 -5 9 8 0 24 -4 35 -9z m1734 -22 c13 -37 3 -48 -46
-48 -38 0 -40 4 -13 48 25 41 45 41 59 0z m-1897 -10 c37 -11 101 -41 141 -67
l73 -46 -32 -52 -33 -51 -34 32 c-48 45 -101 58 -277 65 -133 6 -162 10 -203
30 -26 12 -47 26 -47 31 0 13 23 27 78 49 112 45 212 47 334 9z m163 12 c14
-5 24 -14 21 -19 -4 -5 -3 -11 1 -14 5 -2 2 -2 -5 0 -8 1 -25 3 -38 3 -14 0
-23 4 -20 9 3 4 18 7 33 5 25 -3 24 -3 -4 6 -18 6 -33 13 -33 15 0 8 17 6 45
-5z m348 -27 c-7 -2 -21 -2 -30 0 -10 3 -4 5 12 5 17 0 24 -2 18 -5z m437 -8
c-7 -9 -15 -13 -19 -10 -3 3 1 10 9 15 21 14 24 12 10 -5z m100 -3 c0 -12 -52
-83 -73 -101 -20 -16 -42 -3 -50 30 -5 17 -3 18 9 8 12 -10 21 -5 52 29 34 39
62 53 62 34z m219 -18 c2 -10 0 -16 -4 -12 -5 4 -14 3 -21 -3 -18 -14 -29 8
-13 27 15 19 33 13 38 -12z m798 -6 c-3 -7 -5 -2 -5 12 0 14 2 19 5 13 2 -7 2
-19 0 -25z m-1882 12 l20 -9 -20 -1 -20 -1 20 -10 c17 -7 17 -8 2 -6 -10 1
-17 6 -17 12 1 5 -7 12 -17 16 -12 5 -13 8 -3 8 8 0 24 -4 35 -9z m295 -5
c-33 -19 -50 -18 -26 0 11 8 27 15 35 15 10 -1 7 -6 -9 -15z m64 -4 c4 -5 -3
-7 -14 -4 -23 6 -26 13 -6 13 8 0 17 -4 20 -9z m1172 -2 c32 -6 96 -26 142
-45 46 -19 89 -34 95 -33 33 4 40 -1 21 -16 -18 -14 -18 -14 3 -8 50 12 81
-105 48 -183 -8 -20 -12 -40 -9 -45 9 -14 -175 -3 -249 16 l-67 17 -51 -46
c-28 -25 -78 -66 -112 -92 -34 -25 -67 -59 -73 -74 -13 -31 -78 -60 -96 -42
-6 6 0 12 19 16 41 11 73 34 73 55 0 16 34 46 173 153 l48 37 -38 10 c-21 5
-59 15 -84 21 l-46 12 9 41 c5 23 11 43 13 45 5 6 92 -23 250 -83 189 -72 186
-71 210 -45 15 17 16 20 3 15 -33 -13 -51 64 -23 101 17 22 19 34 6 34 -5 0
-19 -16 -31 -36 -18 -28 -21 -44 -16 -77 7 -41 7 -41 -14 -22 -24 22 -26 71
-4 104 9 13 13 26 8 31 -13 12 -172 43 -188 37 -8 -3 -17 -24 -21 -47 -6 -37
-9 -41 -29 -35 -11 4 -49 15 -83 24 l-63 17 45 44 c42 41 45 43 90 37 35 -5
46 -4 43 6 -8 22 -105 21 -144 -2 l-34 -20 -1 32 c-1 29 -2 27 -16 -18 -27
-94 -27 -95 -66 -83 l-34 11 36 36 c20 20 43 51 50 68 11 26 20 33 49 36 73 7
99 7 158 -4z m310 -33 c30 -34 46 -134 34 -216 -28 -194 -129 -384 -228 -427
-39 -16 -67 -10 -104 24 -14 14 -30 25 -35 25 -4 -1 -7 6 -5 15 2 8 -1 13 -6
10 -10 -7 -36 59 -28 72 3 5 -1 28 -9 51 -14 40 -14 41 7 38 15 -2 26 -16 37
-46 9 -24 27 -57 41 -74 26 -30 26 -31 58 -14 18 9 42 32 55 51 12 19 25 35
30 35 12 0 8 -24 -8 -46 -8 -12 -11 -24 -8 -28 3 -3 2 -6 -3 -6 -6 0 -19 -7
-30 -15 -19 -15 -19 -15 1 -8 11 3 30 13 43 21 37 24 36 6 -1 -22 -24 -19 -46
-26 -77 -26 -38 0 -48 5 -87 45 -24 25 -43 39 -43 31 0 -23 46 -72 86 -91 109
-52 217 65 285 307 23 82 24 154 3 206 -16 42 -35 55 -101 72 -55 14 -62 27
-21 39 46 14 89 5 114 -23z m-1546 9 c-26 -10 -30 -14 -15 -15 l20 -2 -20 -6
c-15 -3 -2 -11 45 -28 61 -23 60 -24 -15 -10 -18 4 -10 -2 20 -14 41 -16 44
-19 15 -14 -60 11 -105 31 -101 45 2 8 4 20 5 27 3 19 27 32 56 31 22 0 21 -2
-10 -14z m50 -5 c-8 -5 -24 -9 -35 -9 -16 1 -16 2 5 9 35 11 48 11 30 0z m618
-6 c29 -20 29 -37 0 -28 -20 6 -21 5 -10 -9 8 -9 21 -13 29 -10 11 4 14 3 9
-6 -4 -6 -16 -9 -26 -6 -24 8 -77 -38 -95 -82 -8 -20 -15 -65 -15 -102 0 -60
-2 -67 -20 -68 -25 -2 -35 32 -27 92 5 32 3 45 -8 48 -21 9 -7 49 16 42 12 -4
21 1 29 17 10 21 10 21 -3 6 -16 -20 -27 -23 -27 -7 0 19 64 100 90 115 32 17
31 17 58 -2z m929 -26 c-3 -8 -6 -5 -6 6 -1 11 2 17 5 13 3 -3 4 -12 1 -19z
m-1542 2 c25 -11 -1 -11 -35 0 -20 6 -21 8 -5 8 11 0 29 -3 40 -8z m-202 -57
c9 -9 17 -24 17 -34 0 -10 -27 -82 -60 -161 -34 -79 -93 -219 -132 -311 -39
-92 -78 -171 -87 -176 -18 -9 -81 5 -81 18 0 4 22 73 49 152 28 79 73 220 101
312 55 184 62 201 88 217 22 13 82 3 105 -17z m155 3 c133 -46 135 -62 3 -23
-41 12 -76 28 -79 35 -5 16 -7 16 76 -12z m790 -15 c3 -20 0 -23 -17 -18 -25
6 -28 -8 -3 -23 15 -10 15 -10 -3 -8 -21 3 -32 37 -21 64 9 23 41 12 44 -15z
m-370 -1 c17 -11 32 -25 32 -31 0 -7 -18 -28 -40 -47 -66 -56 -85 -102 -85
-207 0 -80 3 -97 31 -155 33 -70 84 -127 122 -137 26 -6 209 48 260 78 18 10
41 19 50 19 15 0 15 -1 0 -16 -17 -17 -301 -124 -330 -124 -29 0 -93 65 -126
127 -49 92 -72 174 -71 250 0 83 22 140 72 194 37 39 32 55 -6 22 -23 -20 -16
-2 11 30 20 22 39 22 80 -3z m273 -21 c11 -45 5 -185 -10 -203 -39 -47 -101 6
-101 86 0 104 89 198 111 117z m-1416 -16 c-42 -22 -122 -85 -173 -135 -80
-80 -165 -223 -228 -388 -41 -106 -44 -87 -4 31 90 269 279 510 399 509 l36
-1 -30 -16z m334 3 c9 -10 10 -28 4 -58 l-9 -43 -17 26 c-9 14 -20 39 -23 57
-6 27 -4 32 14 32 11 0 25 -6 31 -14z m358 -62 c20 -63 20 -64 1 -64 -21 0
-41 39 -52 102 -6 32 -4 36 11 32 12 -4 26 -27 40 -70z m310 7 c-24 -42 -29
-42 -51 -4 -4 8 7 19 31 32 21 10 39 18 41 16 1 -1 -8 -21 -21 -44z m704 -126
l-20 -45 -55 0 c-64 0 -65 3 -36 69 20 43 21 43 60 37 39 -6 40 -5 40 22 0 15
-6 34 -12 41 -11 10 -8 16 12 33 l25 20 3 -66 c2 -49 -2 -78 -17 -111z m409
124 c0 -21 -4 -30 -12 -27 -7 3 -38 13 -68 24 l-55 18 35 7 c19 3 50 7 68 8
29 1 32 -1 32 -30z m-1300 5 l35 -14 -45 5 -45 4 37 -12 c50 -17 58 -27 11
-16 -59 13 -63 9 -8 -11 54 -20 43 -26 -16 -10 -32 9 -37 14 -35 40 1 34 12
36 66 14z m-574 -22 c11 -6 26 -18 34 -26 11 -14 8 -14 -26 0 -28 12 -58 15
-104 12 -144 -11 -287 -127 -388 -319 -78 -145 -115 -294 -110 -435 l3 -82 50
43 50 44 -18 64 c-9 36 -17 68 -17 71 0 17 35 2 70 -31 39 -34 41 -38 35 -82
-10 -79 -13 -85 -70 -160 -30 -41 -55 -79 -55 -85 0 -26 51 -114 85 -150 52
-52 113 -78 186 -78 129 0 243 99 349 302 74 141 95 139 26 -2 -75 -158 -175
-271 -281 -319 -82 -38 -193 -19 -279 46 -35 26 -87 114 -112 188 -13 40 -14
41 -9 7 2 -19 25 -75 50 -124 25 -49 44 -91 41 -93 -7 -8 -55 62 -81 119 -44
96 -58 186 -52 338 11 266 106 493 271 648 120 112 260 154 352 104z m1444
-22 c0 -13 -20 -13 -40 0 -12 8 -9 10 13 10 15 0 27 -4 27 -10z m-1057 -104
c9 -28 25 -85 37 -126 32 -109 76 -149 220 -197 10 -4 11 -7 3 -10 -7 -2 -40
8 -73 23 -87 39 -144 105 -171 198 -11 39 -29 96 -40 126 -32 86 -34 99 -11
66 11 -16 27 -52 35 -80z m814 82 c-3 -8 -6 -5 -6 6 -1 11 2 17 5 13 3 -3 4
-12 1 -19z m-628 -8 c23 -6 41 -13 38 -16 -8 -8 -97 18 -97 28 0 5 3 7 8 5 4
-3 27 -10 51 -17z m-572 -19 c30 -25 63 -82 63 -108 0 -12 -5 -34 -12 -48 -9
-20 -17 -25 -32 -20 -63 17 -113 16 -164 -4 l-53 -21 6 22 c20 67 122 198 154
198 9 -1 26 -9 38 -19z m1531 -14 c-1 -12 1 -28 5 -34 5 -8 3 -13 -7 -13 -12
0 -16 10 -16 41 0 26 4 38 11 34 5 -4 9 -17 7 -28z m-1155 -121 c41 -145 83
-198 201 -252 47 -21 67 -25 107 -21 51 6 68 -3 44 -23 -20 -16 -71 -8 -163
27 -55 21 -85 39 -117 74 -43 46 -48 58 -101 242 -16 56 -34 76 -34 38 0 -25
-16 -36 -23 -16 -3 7 1 28 10 45 l15 32 19 -31 c10 -17 29 -69 42 -115z m-629
112 c-36 -63 -115 -130 -132 -113 -7 7 115 125 129 125 6 0 7 -6 3 -12z m752
-14 c18 -15 18 -15 -3 -9 -13 4 -23 2 -23 -3 0 -6 12 -13 26 -16 15 -4 24 -10
21 -13 -14 -14 -55 8 -59 32 -6 29 9 33 38 9z m1467 -44 c-68 -64 -105 -63
-139 3 -20 38 -12 44 28 20 32 -19 36 -19 80 -4 26 9 50 19 54 24 4 4 10 4 13
1 3 -3 -13 -23 -36 -44z m-983 17 c0 -2 -11 -18 -25 -37 -14 -19 -25 -48 -25
-64 0 -34 -19 -78 -35 -80 -14 -2 -24 61 -15 100 10 45 46 84 77 84 13 0 23
-1 23 -3z m-700 -44 c0 -17 -42 -129 -75 -200 -10 -19 -15 -62 -15 -116 0
-120 -34 -228 -91 -286 -23 -23 -39 -35 -35 -26 3 9 6 20 6 24 0 5 11 19 23
32 39 39 61 123 35 132 -7 2 -3 3 8 1 18 -3 22 3 27 41 4 24 3 55 -2 67 -8 22
-9 21 -24 -14 -9 -21 -21 -38 -26 -38 -12 0 3 41 72 195 24 55 52 124 62 153
19 52 35 68 35 35z m248 2 c2 -2 1 -8 -2 -13 -8 -13 -46 -22 -46 -11 0 5 10 9
23 9 20 1 19 2 -8 16 l-30 14 30 -6 c16 -3 32 -7 33 -9z m707 -15 c3 -5 1 -10
-4 -10 -6 0 -11 5 -11 10 0 6 2 10 4 10 3 0 8 -4 11 -10z m208 3 c-7 -2 -21
-2 -30 0 -10 3 -4 5 12 5 17 0 24 -2 18 -5z m-261 -25 c-9 -9 -15 -9 -24 0 -9
9 -7 12 12 12 19 0 21 -3 12 -12z m563 1 c70 -18 67 -15 45 -58 -24 -49 -38
-58 -56 -39 -17 16 -47 108 -36 108 4 0 25 -5 47 -11z m-610 -58 c0 -47 -3
-56 -27 -74 -32 -24 -45 -18 -28 14 10 18 9 23 -4 31 -22 12 -20 30 5 62 34
43 54 31 54 -33z m784 27 c-22 -42 -50 -78 -62 -78 -6 0 1 12 15 28 14 15 31
37 37 50 6 12 14 22 17 22 2 0 -1 -10 -7 -22z m-1389 2 c18 -12 2 -12 -25 0
-13 6 -15 9 -5 9 8 0 22 -4 30 -9z m18 -29 c10 -6 11 -10 3 -15 -6 -4 -11 -3
-11 2 0 5 -10 12 -22 16 -16 4 -8 -7 25 -35 51 -44 65 -86 25 -74 -34 10 -88
71 -88 99 0 21 4 24 27 20 15 -3 33 -9 41 -13z m796 -10 c10 -15 -23 -34 -62
-35 -27 -1 -37 3 -37 14 0 21 88 39 99 21z m-1665 -20 c8 -14 4 -24 -19 -46
-29 -28 -30 -28 -50 -10 -26 23 -25 40 2 59 30 21 55 20 67 -3z m1341 -22 c0
-21 -7 -32 -30 -44 -29 -15 -60 -20 -60 -10 0 14 32 80 41 86 23 14 49 -3 49
-32z m180 37 c0 -11 -19 -15 -25 -6 -3 5 1 10 9 10 9 0 16 -2 16 -4z m-1237
-38 l22 -23 -50 -5 c-62 -7 -82 -18 -129 -71 -52 -57 -95 -152 -110 -246 -8
-43 -14 -70 -15 -60 -2 26 -21 10 -21 -17 0 -29 10 -39 25 -26 9 8 14 -3 19
-42 8 -59 21 -88 40 -88 8 0 19 -7 26 -15 31 -37 130 -8 193 57 42 42 47 53
42 78 -9 41 10 73 38 64 32 -9 31 -7 3 -71 -47 -103 -145 -182 -224 -183 -69
0 -149 70 -138 121 3 16 1 31 -4 34 -6 3 -10 -4 -11 -17 -1 -16 -6 -9 -16 22
-19 60 -11 187 17 263 67 180 220 297 293 225z m276 -203 c1 -194 -48 -364
-151 -523 -91 -138 -214 -235 -314 -248 l-39 -4 40 13 c51 17 108 47 102 53
-2 3 -26 -7 -52 -21 -26 -14 -56 -25 -66 -25 -10 0 -21 -5 -25 -11 -11 -18
-101 -3 -150 26 -24 14 -51 39 -59 56 l-16 30 50 -34 c93 -64 185 -71 283 -21
27 14 47 20 43 13 -5 -7 -3 -10 6 -7 8 3 14 10 14 16 0 6 6 17 14 24 10 10 12
10 7 1 -4 -7 -3 -13 2 -13 13 0 43 35 37 43 -3 4 -2 5 1 3 13 -10 106 112 149
195 78 151 116 330 109 514 -2 54 0 72 5 55 5 -14 9 -74 10 -135z m-301 96
c20 -12 -4 -101 -27 -101 -19 0 -52 -32 -70 -67 -15 -30 -14 -98 3 -112 11
-10 11 -18 -1 -53 -13 -39 -13 -43 3 -55 28 -20 44 -16 80 24 28 30 38 35 51
27 29 -18 25 -31 -19 -77 -76 -80 -133 -73 -176 22 -21 46 -24 64 -20 130 6
95 44 186 99 236 40 36 54 41 77 26z m-383 -48 c6 -29 3 -34 -19 -44 -37 -17
-41 -6 -21 47 19 49 29 48 40 -3z m455 -113 c0 -9 -42 -22 -48 -15 -3 2 -2 11
1 19 6 15 47 11 47 -4z m-432 -2 c-3 -7 -15 -14 -29 -16 -23 -2 -23 -2 -5 13
24 18 39 20 34 3z m466 -15 c-4 -10 -7 -28 -7 -40 1 -25 -15 -31 -23 -10 -7
18 13 67 27 67 7 0 8 -7 3 -17z m-394 -293 c0 -23 84 -100 120 -111 52 -16
118 -4 174 31 61 39 48 12 -29 -58 -117 -107 -266 -148 -342 -94 -40 28 -49
61 -34 114 17 56 111 156 111 118z"/>
<path d="M2370 4205 c0 -2 4 -15 10 -29 13 -34 30 -33 30 2 0 21 -5 28 -20 29
-11 1 -20 0 -20 -2z"/>
<path d="M2957 4050 c-27 -21 -53 -83 -42 -100 11 -18 76 -40 120 -40 28 0 51
7 66 20 l24 20 -36 -6 c-35 -5 -38 -3 -69 40 -17 26 -32 55 -33 66 -2 24 1 24
-30 0z"/>
<path d="M2075 2811 c-156 -85 -244 -149 -368 -267 -82 -79 -93 -96 -23 -39
23 19 78 51 122 71 43 19 94 47 112 61 48 36 48 23 1 -31 -44 -50 -46 -76 -4
-36 25 23 85 111 85 123 0 3 -19 0 -42 -9 -22 -8 -43 -12 -46 -9 -5 4 31 21
74 34 17 5 173 141 162 141 -2 0 -34 -17 -73 -39z"/>
<path d="M2020 2525 c-19 -7 -28 -14 -20 -14 8 0 29 6 45 14 39 17 21 18 -25
0z"/>
<path d="M1318 2377 c-110 -58 -187 -107 -168 -107 13 0 253 130 268 145 17
17 -29 -1 -100 -38z"/>
<path d="M3560 1771 c-13 -25 -3 -71 16 -71 15 0 28 38 22 66 -5 26 -25 28
-38 5z"/>
<path d="M2580 1641 c0 -5 5 -13 10 -16 6 -3 10 -2 10 4 0 5 -4 13 -10 16 -5
3 -10 2 -10 -4z"/>
<path d="M2367 1703 c-18 -29 -28 -133 -18 -188 22 -116 131 -295 180 -295 10
0 4 8 -15 20 -39 25 -74 75 -115 165 -36 79 -48 179 -30 255 9 42 9 61 -2 43z"/>
<path d="M992 795 c0 -16 2 -22 5 -12 2 9 2 23 0 30 -3 6 -5 -1 -5 -18z"/>
<path d="M1414 1376 c-10 -8 -15 -18 -11 -22 4 -4 15 0 24 9 22 21 12 31 -13
13z"/>
<path d="M1327 1261 c-18 -31 -22 -51 -9 -51 7 0 42 63 42 75 0 14 -18 1 -33
-24z"/>
<path d="M1276 1192 c-4 -13 -5 -26 -2 -29 10 -11 18 4 14 29 l-4 23 -8 -23z"/>
<path d="M1258 1130 c-12 -39 -10 -76 3 -63 6 6 9 28 7 49 -3 35 -4 36 -10 14z"/>
<path d="M5020 4388 c-101 -82 -383 -303 -612 -478 -183 -140 -450 -397 -512
-493 -42 -65 -81 -153 -91 -209 -6 -29 -3 -40 14 -57 27 -27 59 -26 141 2 64
22 205 95 198 103 -3 2 -20 -1 -39 -6 -18 -6 -50 -8 -69 -5 -24 3 -28 2 -12
-3 19 -6 5 -13 -78 -40 -101 -34 -130 -35 -130 -8 0 10 25 18 93 27 86 13 89
14 47 19 -63 8 -73 16 -67 56 9 56 63 120 292 350 226 226 291 282 525 444
158 110 274 196 348 257 44 38 52 50 52 79 0 19 -3 34 -7 33 -5 0 -46 -32 -93
-71z"/>
<path d="M4909 4073 c-13 -16 -12 -17 4 -4 9 7 17 15 17 17 0 8 -8 3 -21 -13z"/>
<path d="M4864 4038 l-19 -23 23 19 c12 11 22 21 22 23 0 8 -8 2 -26 -19z"/>
<path d="M4619 3847 c-118 -94 -264 -213 -325 -263 -60 -50 -144 -117 -186
-149 -43 -31 -78 -59 -78 -62 0 -2 53 32 118 76 113 77 263 198 496 399 61 53
132 114 156 134 25 20 43 37 40 37 -3 0 -102 -77 -221 -172z"/>
<path d="M3849 3927 c-118 -81 -264 -193 -294 -227 -17 -19 -11 -18 40 10 103
57 229 132 249 149 16 15 120 142 114 140 -2 0 -51 -33 -109 -72z"/>
<path d="M3862 3486 c-66 -68 -125 -132 -131 -143 -5 -11 47 38 117 109 115
117 151 158 139 158 -2 0 -58 -56 -125 -124z"/>
<path d="M4487 3380 c-36 -38 -71 -79 -78 -91 l-11 -22 33 23 c19 13 67 48
107 79 67 50 72 56 56 68 -10 7 -23 13 -30 13 -6 0 -41 -31 -77 -70z"/>
<path d="M3999 3353 c-13 -16 -12 -17 4 -4 16 13 21 21 13 21 -2 0 -10 -8 -17
-17z"/>
<path d="M4190 3080 c-118 -60 -237 -119 -265 -129 -27 -11 -41 -20 -30 -20
30 -1 150 54 335 153 144 77 196 107 180 106 -3 -1 -102 -50 -220 -110z"/>
<path d="M4460 2959 c-140 -94 -262 -177 -270 -186 -15 -16 2 -6 180 107 146
91 368 250 350 249 -3 0 -120 -77 -260 -170z"/>
<path d="M1400 3016 c-41 -18 -124 -61 -185 -95 -150 -84 -322 -171 -428 -216
-48 -21 -86 -39 -84 -41 6 -6 368 151 489 212 122 61 274 149 283 165 8 13 9
13 -75 -25z"/>
<path d="M615 2633 c-64 -27 -86 -40 -45 -28 35 11 127 53 115 53 -5 0 -37
-11 -70 -25z"/>
<path d="M510 2590 c-8 -5 -10 -10 -5 -10 6 0 17 5 25 10 8 5 11 10 5 10 -5 0
-17 -5 -25 -10z"/>
<path d="M460 2570 c-8 -5 -10 -10 -5 -10 6 0 17 5 25 10 8 5 11 10 5 10 -5 0
-17 -5 -25 -10z"/>
<path d="M3941 1550 c-58 -32 -145 -99 -138 -107 8 -7 110 55 157 97 25 22 43
39 40 40 -3 0 -29 -14 -59 -30z"/>
</g>
</svg>